#N canvas 894 18 877 1003 10;
#X obj 187 673 *~ 0.08;
#X obj 269 455 line~;
#X obj 139 159 vsl 12 256 0 250 0 0 empty empty f2 0 -8 0 8 -258699
-1 -1 0 1;
#X obj 187 700 dac~;
#X obj 263 492 *~;
#X obj 291 490 *~;
#X obj 226 154 vsl 12 256 0 250 0 0 empty empty l3 0 -8 0 8 -260818
-1 -1 0 1;
#X obj 292 516 +~;
#X obj 264 515 +~;
#X obj 282 149 vsl 12 256 500 2000 0 1 empty empty cf2 0 -8 0 8 -241291
-1 -1 13345 1;
#X msg 269 433 \$1 10;
#X text 22 6 Forcefield and laser beam generator;
#X obj 499 509 loadbang;
#N canvas 0 0 450 300 (subpatch) 0;
#X array \$0-array 1000 float 0;
#X coords 0 -1 999 1 150 100 1;
#X restore 479 614 graph;
#X obj 481 580 tabwrite~ \$0-array;
#X obj 499 544 metro 100;
#X obj 130 89 r fin;
#X obj 131 127 bng 15 250 50 0 empty empty empty 17 7 0 10 -262144
-1 -1;
#N canvas 400 193 516 662 laserControls 0;
#X obj 200 241 s cfin;
#X msg 204 206 set \$1;
#X obj 144 158 bng 30 250 50 0 empty empty reset_sliders 0 -10 0 10
-262144 -1 -1;
#X obj 252 158 bng 30 250 50 0 empty empty high_sliders 0 -10 0 10
-262144 -1 -1;
#X msg 252 189 1e+007;
#X text 203 116 Controls;
#X msg 144 189 0;
#X msg 88 423 \$1 0 \, \$2 \$3 \$4 \, \$1 \$5 \$6;
#X obj 146 66 inlet;
#X obj 132 398 pack f f f f f f;
#X floatatom 101 362 5 0 0 0 - - -;
#X floatatom 136 362 5 0 0 0 - - -;
#X floatatom 172 362 5 0 0 0 - - -;
#X floatatom 209 362 5 0 0 0 - - -;
#X floatatom 247 362 5 0 0 0 - - -;
#X floatatom 286 361 5 0 0 0 - - -;
#X obj 158 302 bng 30 250 50 0 empty empty marching_sliders 0 -10 0
10 -262144 -1 -1;
#X obj 318 576 s cfin;
#X msg 170 538 set \$1;
#X obj 170 490 snapshot~;
#X floatatom 170 513 5 0 0 0 - - -;
#X obj 169 465 vline~;
#X obj 27 287 tgl 15 0 empty empty empty 17 7 0 10 -262144 -1 -1 0
1;
#X obj 65 51 inlet;
#X obj 227 518 * 3;
#X msg 279 547 set \$1;
#X obj 141 578 s fin;
#X obj 187 580 s lin;
#X obj 160 245 s fin;
#X obj 250 242 s lin;
#X obj 315 49 inlet;
#X msg 254 416 1 0 \, 2000 500 2000 \, 1 1000 3000;
#X obj 27 423 metro 100;
#X text 13 27 start/stop vline;
#X text 148 45 vSlider input;
#X text 315 32 comment;
#X connect 1 0 0 0;
#X connect 1 0 28 0;
#X connect 1 0 29 0;
#X connect 2 0 6 0;
#X connect 3 0 4 0;
#X connect 4 0 1 0;
#X connect 6 0 1 0;
#X connect 7 0 21 0;
#X connect 8 0 7 0;
#X connect 9 0 7 0;
#X connect 10 0 9 0;
#X connect 11 0 9 1;
#X connect 12 0 9 2;
#X connect 13 0 9 3;
#X connect 14 0 9 4;
#X connect 15 0 9 5;
#X connect 16 0 10 0;
#X connect 16 0 11 0;
#X connect 16 0 12 0;
#X connect 16 0 13 0;
#X connect 16 0 14 0;
#X connect 16 0 15 0;
#X connect 18 0 26 0;
#X connect 18 0 27 0;
#X connect 19 0 20 0;
#X connect 20 0 18 0;
#X connect 20 0 24 0;
#X connect 21 0 19 0;
#X connect 22 0 32 0;
#X connect 23 0 22 0;
#X connect 24 0 25 0;
#X connect 25 0 17 0;
#X connect 30 0 21 0;
#X connect 31 0 21 0;
#X connect 32 0 19 0;
#X restore -56 375 pd laserControls;
#X obj 42 279 inlet;
#X obj -38 282 inlet;
#X obj -103 284 inlet;
#X text 260 3 Signal input from senders(came across problem where slider
would update but wouldnt give out number \, solved by using bangs on
recievers);
#X text 479 717 Display output waveform;
#X obj 263 540 osc~;
#X obj 293 544 osc~;
#X obj 188 621 osc~;
#X obj 156 460 line~;
#X obj 119 160 vsl 12 256 0 250 0 0 empty empty f1 0 -8 0 8 -258699
-1 -1 0 1;
#X obj 184 155 vsl 12 256 0 250 0 0 empty empty l1 0 -8 0 8 -260818
-1 -1 0 1;
#X obj 205 155 vsl 12 256 0 250 0 0 empty empty l2 0 -8 0 8 -260818
-1 -1 0 1;
#X obj 178 509 +~;
#X obj 259 147 vsl 12 256 500 2000 0 1 empty empty cf1 0 -8 0 8 -241291
-1 -1 13345 1;
#X msg 156 438 \$1 10;
#X obj 212 78 r lin;
#X obj 271 74 r cfin;
#X obj 270 112 bng 15 250 50 0 empty empty empty 17 7 0 10 -262144
-1 -1;
#X obj 210 113 bng 15 250 50 0 empty empty empty 17 7 0 10 -262144
-1 -1;
#X obj 178 538 osc~;
#X obj 176 483 /~;
#X obj 291 568 *~;
#X obj 143 569 *~;
#X obj 123 518 +~;
#X obj 122 543 osc~;
#X obj 123 496 /~;
#X text 24 18 ajf2005 modified san2014;
#X obj 161 591 hip~;
#X obj 217 592 lop~;
#X connect 0 0 3 0;
#X connect 0 0 3 1;
#X connect 1 0 4 0;
#X connect 1 0 5 0;
#X connect 1 0 40 1;
#X connect 2 0 4 1;
#X connect 4 0 8 0;
#X connect 5 0 7 0;
#X connect 6 0 7 1;
#X connect 7 0 25 0;
#X connect 8 0 24 0;
#X connect 9 0 10 0;
#X connect 10 0 1 0;
#X connect 12 0 15 0;
#X connect 15 0 14 0;
#X connect 16 0 2 0;
#X connect 16 0 17 0;
#X connect 16 0 28 0;
#X connect 17 0 2 0;
#X connect 17 0 28 0;
#X connect 19 0 18 2;
#X connect 20 0 18 1;
#X connect 21 0 18 0;
#X connect 24 0 40 0;
#X connect 25 0 40 0;
#X connect 26 0 14 0;
#X connect 26 0 0 0;
#X connect 27 0 39 0;
#X connect 27 0 41 1;
#X connect 27 0 44 0;
#X connect 28 0 39 1;
#X connect 29 0 42 1;
#X connect 30 0 31 1;
#X connect 31 0 38 0;
#X connect 32 0 33 0;
#X connect 33 0 27 0;
#X connect 34 0 29 0;
#X connect 34 0 30 0;
#X connect 34 0 37 0;
#X connect 34 0 6 0;
#X connect 35 0 32 0;
#X connect 35 0 36 0;
#X connect 35 0 9 0;
#X connect 36 0 32 0;
#X connect 36 0 9 0;
#X connect 37 0 29 0;
#X connect 37 0 30 0;
#X connect 37 0 6 0;
#X connect 38 0 41 0;
#X connect 39 0 31 0;
#X connect 40 0 47 0;
#X connect 41 0 46 0;
#X connect 42 0 43 0;
#X connect 43 0 41 0;
#X connect 44 0 42 0;
#X connect 46 0 26 0;
#X connect 47 0 26 0;
